<?xml version="1.0" standalone="no"?>
<!DOCTYPE svg PUBLIC "-//W3C//DTD SVG 20010904//EN"
 "http://www.w3.org/TR/2001/REC-SVG-20010904/DTD/svg10.dtd">
<svg version="1.0" xmlns="http://www.w3.org/2000/svg"
 width="644.000000pt" height="644.000000pt" viewBox="0 0 644.000000 644.000000"
 preserveAspectRatio="xMidYMid meet">
<metadata>
Created by potrace 1.14, written by Peter Selinger 2001-2017
</metadata>
<g transform="translate(0.000000,644.000000) scale(0.100000,-0.100000)"
fill="#000000" stroke="none">
<path d="M3750 5966 c-154 -45 -305 -156 -415 -306 -69 -95 -145 -253 -154
-320 -2 -18 -40 -10 -55 12 -34 49 -10 175 60 307 l44 83 -33 -7 c-17 -4 -43
-9 -57 -11 -71 -10 -85 -13 -230 -49 -8 -2 -16 -4 -17 -5 -3 -3 -4 -3 -48 -15
-16 -4 -54 -18 -83 -31 -29 -13 -57 -24 -63 -24 -18 0 -229 -103 -229 -112 0
-4 -5 -8 -11 -8 -6 0 -52 -28 -102 -62 -110 -75 -357 -315 -357 -347 0 -5 -3
-11 -7 -13 -15 -6 -113 -156 -113 -172 0 -9 -4 -16 -8 -16 -12 0 -73 -136
-111 -246 -17 -50 -39 -137 -48 -194 l-18 -103 -47 -38 c-72 -56 -158 -84
-320 -103 -182 -22 -199 -24 -243 -31 -171 -28 -265 -72 -368 -172 -57 -55
-124 -184 -136 -263 -28 -172 89 -355 283 -444 48 -22 168 -57 174 -51 3 3 10
1 16 -4 10 -7 74 -25 128 -36 22 -5 108 -30 223 -67 50 -15 95 -28 102 -28 22
0 23 -17 3 -58 -21 -43 -52 -163 -48 -183 2 -6 -6 -16 -17 -22 -69 -40 -145
-101 -167 -134 -66 -95 -95 -227 -73 -333 4 -19 8 -44 10 -55 4 -25 19 -70 35
-110 7 -16 14 -35 16 -42 4 -21 126 -258 136 -264 5 -3 10 -13 12 -21 1 -8 18
-38 39 -66 20 -29 37 -57 37 -62 0 -6 4 -10 8 -10 4 0 15 -12 24 -27 18 -31
29 -46 103 -136 67 -84 100 -119 241 -261 135 -135 159 -157 259 -237 80 -64
219 -159 234 -159 5 0 11 -3 13 -8 4 -10 140 -87 220 -124 70 -33 91 -53 38
-38 -121 35 -343 105 -375 119 -11 5 -42 19 -70 31 -144 63 -242 118 -394 219
-46 31 -91 61 -100 66 -9 6 -18 12 -21 15 -3 3 -36 30 -75 62 -120 97 -279
260 -359 370 -17 24 -36 49 -43 56 -6 6 -15 21 -18 32 -4 11 -11 18 -16 15 -5
-4 -9 0 -9 8 0 8 -8 25 -19 38 -37 47 -140 239 -172 322 -11 28 -26 66 -34 82
-38 89 -99 302 -111 393 -3 26 -8 56 -11 67 -5 24 -11 90 -17 201 -3 45 -8 94
-12 110 -18 71 -79 124 -143 124 -36 0 -92 -38 -111 -75 -23 -46 -20 -351 4
-465 10 -46 30 -135 31 -140 1 -3 5 -23 10 -45 9 -47 76 -244 112 -330 39 -96
135 -285 145 -285 4 0 8 -7 8 -16 0 -31 230 -354 252 -354 4 0 8 -6 8 -12 1
-21 191 -223 300 -318 34 -30 68 -61 76 -68 8 -7 14 -11 14 -8 0 3 17 -11 38
-29 20 -19 42 -35 49 -35 6 0 13 -4 15 -8 4 -11 124 -92 137 -92 5 0 11 -4 13
-8 4 -9 55 -40 148 -90 36 -19 70 -38 76 -43 6 -5 14 -6 17 -2 4 3 7 2 7 -4 0
-9 21 -20 51 -27 3 0 21 -9 40 -18 77 -38 136 -60 266 -102 161 -52 236 -74
278 -81 17 -2 41 -7 55 -10 38 -8 124 -22 190 -30 19 -3 77 -7 129 -10 51 -3
97 -8 102 -10 4 -3 10 -1 14 5 4 6 12 7 18 3 13 -8 184 -6 198 2 5 4 9 1 9 -5
0 -6 3 -9 8 -6 8 5 50 11 142 21 30 4 69 9 85 12 17 2 39 6 50 8 11 2 38 6 60
10 22 3 58 11 80 16 49 13 71 19 110 26 17 3 38 9 48 14 9 5 17 7 17 5 0 -7
224 73 333 119 164 70 466 243 548 315 10 8 24 20 31 25 110 81 397 368 431
430 9 17 16 26 17 21 0 -12 23 19 113 150 74 110 193 325 238 434 13 30 27 58
32 61 5 3 8 9 7 13 -1 4 2 19 8 34 11 29 18 52 21 64 1 4 10 28 21 53 11 25
19 46 18 48 -1 1 4 18 10 37 6 19 14 46 16 60 3 14 5 26 7 28 1 1 2 5 3 10 6
23 19 89 22 102 1 8 8 44 14 80 14 77 16 89 24 156 4 28 9 61 13 75 9 38 12
508 3 569 -5 30 -11 75 -15 100 -4 25 -9 56 -11 70 -3 14 -7 41 -9 60 -3 19
-18 85 -35 145 -36 128 -35 126 -43 145 -4 8 -15 42 -26 75 -49 156 -136 343
-246 530 -16 28 -32 52 -35 55 -3 3 -11 17 -19 33 -8 15 -18 27 -23 27 -4 0
-8 7 -8 15 0 8 -4 15 -10 15 -5 0 -10 5 -10 11 0 11 -126 183 -174 238 -84 96
-297 300 -376 358 -119 88 -302 179 -385 190 -111 16 -277 1 -397 -37 -32 -10
-58 -15 -58 -11 0 17 141 106 290 183 52 28 108 62 123 76 25 23 28 32 24 67
-3 22 -11 41 -17 43 -5 2 -16 9 -23 16 -52 51 -316 54 -462 6 -45 -15 -55 -7
-28 23 50 54 58 119 20 162 -28 33 -90 41 -157 21z"/>
</g>
</svg>
